<mxfile host="app.diagrams.net" agent="Mozilla/5.0 (Windows NT 10.0; Win64; x64) AppleWebKit/537.36 (KHTML, like Gecko) Chrome/131.0.0.0 Safari/537.36 OPR/116.0.0.0" version="26.0.16">
  <diagram name="Page-1" id="WQNn772WktiQvcMwRYNY">
    <mxGraphModel dx="387" dy="209" grid="1" gridSize="10" guides="1" tooltips="1" connect="1" arrows="1" fold="1" page="1" pageScale="1" pageWidth="827" pageHeight="1169" math="0" shadow="0">
      <root>
        <mxCell id="0" />
        <mxCell id="1" parent="0" />
        <mxCell id="AX5s2ERcKMXay1nSs4RS-12" style="rounded=0;orthogonalLoop=1;jettySize=auto;html=1;exitX=1;exitY=0.5;exitDx=0;exitDy=0;entryX=0;entryY=0.5;entryDx=0;entryDy=0;dashed=1;" edge="1" parent="1" source="AX5s2ERcKMXay1nSs4RS-3" target="AX5s2ERcKMXay1nSs4RS-4">
          <mxGeometry relative="1" as="geometry" />
        </mxCell>
        <mxCell id="AX5s2ERcKMXay1nSs4RS-2" value=":core" style="rounded=1;whiteSpace=wrap;html=1;fillColor=#dae8fc;strokeColor=#6c8ebf;" vertex="1" parent="1">
          <mxGeometry x="300" y="160" width="160" height="40" as="geometry" />
        </mxCell>
        <mxCell id="AX5s2ERcKMXay1nSs4RS-14" style="rounded=0;orthogonalLoop=1;jettySize=auto;html=1;exitX=0.5;exitY=1;exitDx=0;exitDy=0;entryX=0.5;entryY=0;entryDx=0;entryDy=0;" edge="1" parent="1" source="AX5s2ERcKMXay1nSs4RS-13" target="AX5s2ERcKMXay1nSs4RS-2">
          <mxGeometry relative="1" as="geometry" />
        </mxCell>
        <mxCell id="AX5s2ERcKMXay1nSs4RS-11" style="rounded=0;orthogonalLoop=1;jettySize=auto;html=1;exitX=0.5;exitY=1;exitDx=0;exitDy=0;entryX=0.5;entryY=0;entryDx=0;entryDy=0;" edge="1" parent="1" source="AX5s2ERcKMXay1nSs4RS-5" target="AX5s2ERcKMXay1nSs4RS-2">
          <mxGeometry relative="1" as="geometry" />
        </mxCell>
        <mxCell id="AX5s2ERcKMXay1nSs4RS-10" style="rounded=0;orthogonalLoop=1;jettySize=auto;html=1;exitX=0.5;exitY=1;exitDx=0;exitDy=0;entryX=0.5;entryY=0;entryDx=0;entryDy=0;" edge="1" parent="1" source="AX5s2ERcKMXay1nSs4RS-4" target="AX5s2ERcKMXay1nSs4RS-2">
          <mxGeometry relative="1" as="geometry" />
        </mxCell>
        <mxCell id="AX5s2ERcKMXay1nSs4RS-9" style="rounded=0;orthogonalLoop=1;jettySize=auto;html=1;exitX=0.5;exitY=1;exitDx=0;exitDy=0;entryX=0.5;entryY=0;entryDx=0;entryDy=0;" edge="1" parent="1" source="AX5s2ERcKMXay1nSs4RS-3" target="AX5s2ERcKMXay1nSs4RS-2">
          <mxGeometry relative="1" as="geometry" />
        </mxCell>
        <mxCell id="AX5s2ERcKMXay1nSs4RS-13" value=":feature:settings" style="rounded=1;whiteSpace=wrap;html=1;fillColor=#ffe6cc;strokeColor=#d79b00;fontStyle=0" vertex="1" parent="1">
          <mxGeometry x="600" y="80" width="160" height="40" as="geometry" />
        </mxCell>
        <mxCell id="AX5s2ERcKMXay1nSs4RS-3" value=":feature:accounts" style="rounded=1;whiteSpace=wrap;html=1;fillColor=#ffe6cc;strokeColor=#d79b00;fontStyle=0" vertex="1" parent="1">
          <mxGeometry y="80" width="160" height="40" as="geometry" />
        </mxCell>
        <mxCell id="AX5s2ERcKMXay1nSs4RS-5" value=":feature:storage" style="rounded=1;whiteSpace=wrap;html=1;fillColor=#ffe6cc;strokeColor=#d79b00;fontStyle=0" vertex="1" parent="1">
          <mxGeometry x="400" y="80" width="160" height="40" as="geometry" />
        </mxCell>
        <mxCell id="AX5s2ERcKMXay1nSs4RS-6" style="rounded=0;orthogonalLoop=1;jettySize=auto;html=1;exitX=0.5;exitY=1;exitDx=0;exitDy=0;entryX=0.5;entryY=0;entryDx=0;entryDy=0;" edge="1" parent="1" source="AX5s2ERcKMXay1nSs4RS-1" target="AX5s2ERcKMXay1nSs4RS-3">
          <mxGeometry relative="1" as="geometry" />
        </mxCell>
        <mxCell id="AX5s2ERcKMXay1nSs4RS-8" style="rounded=0;orthogonalLoop=1;jettySize=auto;html=1;exitX=0.5;exitY=1;exitDx=0;exitDy=0;entryX=0.5;entryY=0;entryDx=0;entryDy=0;" edge="1" parent="1" source="AX5s2ERcKMXay1nSs4RS-1" target="AX5s2ERcKMXay1nSs4RS-5">
          <mxGeometry relative="1" as="geometry" />
        </mxCell>
        <mxCell id="AX5s2ERcKMXay1nSs4RS-15" style="rounded=0;orthogonalLoop=1;jettySize=auto;html=1;exitX=0.5;exitY=1;exitDx=0;exitDy=0;entryX=0.5;entryY=0;entryDx=0;entryDy=0;" edge="1" parent="1" source="AX5s2ERcKMXay1nSs4RS-1" target="AX5s2ERcKMXay1nSs4RS-13">
          <mxGeometry relative="1" as="geometry" />
        </mxCell>
        <mxCell id="AX5s2ERcKMXay1nSs4RS-16" style="rounded=0;orthogonalLoop=1;jettySize=auto;html=1;exitX=0.5;exitY=1;exitDx=0;exitDy=0;entryX=0.5;entryY=0;entryDx=0;entryDy=0;" edge="1" parent="1" source="AX5s2ERcKMXay1nSs4RS-1" target="AX5s2ERcKMXay1nSs4RS-2">
          <mxGeometry relative="1" as="geometry" />
        </mxCell>
        <mxCell id="AX5s2ERcKMXay1nSs4RS-4" value=":feature:auth" style="rounded=1;whiteSpace=wrap;html=1;fillColor=#ffe6cc;strokeColor=#d79b00;fontStyle=0" vertex="1" parent="1">
          <mxGeometry x="200" y="80" width="160" height="40" as="geometry" />
        </mxCell>
        <mxCell id="AX5s2ERcKMXay1nSs4RS-7" style="rounded=0;orthogonalLoop=1;jettySize=auto;html=1;exitX=0.5;exitY=1;exitDx=0;exitDy=0;entryX=0.5;entryY=0;entryDx=0;entryDy=0;" edge="1" parent="1" source="AX5s2ERcKMXay1nSs4RS-1" target="AX5s2ERcKMXay1nSs4RS-4">
          <mxGeometry relative="1" as="geometry" />
        </mxCell>
        <mxCell id="AX5s2ERcKMXay1nSs4RS-1" value=":app" style="rounded=1;whiteSpace=wrap;html=1;fillColor=#d5e8d4;strokeColor=#82b366;" vertex="1" parent="1">
          <mxGeometry x="300" width="160" height="40" as="geometry" />
        </mxCell>
      </root>
    </mxGraphModel>
  </diagram>
</mxfile>
